<mxfile host="app.diagrams.net" modified="2023-06-15T02:12:25.563Z" agent="Mozilla/5.0 (Windows NT 10.0; Win64; x64) AppleWebKit/537.36 (KHTML, like Gecko) Chrome/114.0.0.0 Safari/537.36" etag="yfRiF8QqQQDZ0Q28nYcj" version="21.4.0" type="device">
  <diagram name="페이지-1" id="I7xfN1N7a1NY-qjiqmJn">
    <mxGraphModel dx="792" dy="1114" grid="0" gridSize="10" guides="1" tooltips="1" connect="1" arrows="1" fold="1" page="1" pageScale="1" pageWidth="827" pageHeight="1169" math="0" shadow="0">
      <root>
        <mxCell id="0" />
        <mxCell id="1" parent="0" />
        <mxCell id="569pUtfEa6Q3hfc6EQtt-7" style="edgeStyle=orthogonalEdgeStyle;rounded=0;orthogonalLoop=1;jettySize=auto;html=1;exitX=1;exitY=0.3333333333333333;exitDx=0;exitDy=0;exitPerimeter=0;entryX=0;entryY=0.5;entryDx=0;entryDy=0;" edge="1" parent="1" source="569pUtfEa6Q3hfc6EQtt-1" target="569pUtfEa6Q3hfc6EQtt-2">
          <mxGeometry relative="1" as="geometry" />
        </mxCell>
        <mxCell id="569pUtfEa6Q3hfc6EQtt-8" style="edgeStyle=orthogonalEdgeStyle;rounded=0;orthogonalLoop=1;jettySize=auto;html=1;exitX=1;exitY=0.3333333333333333;exitDx=0;exitDy=0;exitPerimeter=0;entryX=0;entryY=0.5;entryDx=0;entryDy=0;" edge="1" parent="1" source="569pUtfEa6Q3hfc6EQtt-1" target="569pUtfEa6Q3hfc6EQtt-3">
          <mxGeometry relative="1" as="geometry" />
        </mxCell>
        <mxCell id="569pUtfEa6Q3hfc6EQtt-10" style="edgeStyle=orthogonalEdgeStyle;rounded=0;orthogonalLoop=1;jettySize=auto;html=1;exitX=1;exitY=0.3333333333333333;exitDx=0;exitDy=0;exitPerimeter=0;entryX=0;entryY=0.5;entryDx=0;entryDy=0;" edge="1" parent="1" source="569pUtfEa6Q3hfc6EQtt-1" target="569pUtfEa6Q3hfc6EQtt-5">
          <mxGeometry relative="1" as="geometry" />
        </mxCell>
        <mxCell id="569pUtfEa6Q3hfc6EQtt-11" style="edgeStyle=orthogonalEdgeStyle;rounded=0;orthogonalLoop=1;jettySize=auto;html=1;exitX=1;exitY=0.3333333333333333;exitDx=0;exitDy=0;exitPerimeter=0;entryX=0;entryY=0.5;entryDx=0;entryDy=0;" edge="1" parent="1" source="569pUtfEa6Q3hfc6EQtt-1" target="569pUtfEa6Q3hfc6EQtt-6">
          <mxGeometry relative="1" as="geometry" />
        </mxCell>
        <mxCell id="569pUtfEa6Q3hfc6EQtt-1" value="Client" style="shape=umlActor;verticalLabelPosition=bottom;verticalAlign=top;html=1;" vertex="1" parent="1">
          <mxGeometry x="38" y="215" width="30" height="60" as="geometry" />
        </mxCell>
        <mxCell id="569pUtfEa6Q3hfc6EQtt-2" value="메모 조회" style="ellipse;whiteSpace=wrap;html=1;" vertex="1" parent="1">
          <mxGeometry x="183" y="75" width="110" height="48" as="geometry" />
        </mxCell>
        <mxCell id="569pUtfEa6Q3hfc6EQtt-3" value="메모 작성" style="ellipse;whiteSpace=wrap;html=1;" vertex="1" parent="1">
          <mxGeometry x="183" y="167" width="110" height="48" as="geometry" />
        </mxCell>
        <mxCell id="569pUtfEa6Q3hfc6EQtt-5" value="메모 수정" style="ellipse;whiteSpace=wrap;html=1;" vertex="1" parent="1">
          <mxGeometry x="183" y="256" width="110" height="48" as="geometry" />
        </mxCell>
        <mxCell id="569pUtfEa6Q3hfc6EQtt-6" value="메모 삭제" style="ellipse;whiteSpace=wrap;html=1;" vertex="1" parent="1">
          <mxGeometry x="183" y="348" width="110" height="48" as="geometry" />
        </mxCell>
        <mxCell id="569pUtfEa6Q3hfc6EQtt-12" value="패스워드 인증" style="ellipse;whiteSpace=wrap;html=1;" vertex="1" parent="1">
          <mxGeometry x="374" y="296" width="110" height="48" as="geometry" />
        </mxCell>
        <mxCell id="569pUtfEa6Q3hfc6EQtt-14" value="&amp;lt;&amp;lt;Include&amp;gt;&amp;gt;" style="endArrow=open;endSize=12;dashed=1;html=1;rounded=0;exitX=1;exitY=0.5;exitDx=0;exitDy=0;entryX=0;entryY=0.5;entryDx=0;entryDy=0;" edge="1" parent="1" source="569pUtfEa6Q3hfc6EQtt-5" target="569pUtfEa6Q3hfc6EQtt-12">
          <mxGeometry width="160" relative="1" as="geometry">
            <mxPoint x="327" y="473" as="sourcePoint" />
            <mxPoint x="487" y="473" as="targetPoint" />
          </mxGeometry>
        </mxCell>
        <mxCell id="569pUtfEa6Q3hfc6EQtt-15" value="&amp;lt;&amp;lt;Include&amp;gt;&amp;gt;" style="endArrow=open;endSize=12;dashed=1;html=1;rounded=0;exitX=1;exitY=0.5;exitDx=0;exitDy=0;entryX=0;entryY=0.5;entryDx=0;entryDy=0;" edge="1" parent="1" source="569pUtfEa6Q3hfc6EQtt-6" target="569pUtfEa6Q3hfc6EQtt-12">
          <mxGeometry width="160" relative="1" as="geometry">
            <mxPoint x="303" y="290" as="sourcePoint" />
            <mxPoint x="428" y="288" as="targetPoint" />
          </mxGeometry>
        </mxCell>
        <mxCell id="569pUtfEa6Q3hfc6EQtt-16" value="선택한 메모&lt;br&gt;조회" style="ellipse;whiteSpace=wrap;html=1;" vertex="1" parent="1">
          <mxGeometry x="374" y="43" width="110" height="48" as="geometry" />
        </mxCell>
        <mxCell id="569pUtfEa6Q3hfc6EQtt-18" value="전체 메모 &lt;br&gt;조회" style="ellipse;whiteSpace=wrap;html=1;" vertex="1" parent="1">
          <mxGeometry x="374" y="107" width="110" height="48" as="geometry" />
        </mxCell>
        <mxCell id="569pUtfEa6Q3hfc6EQtt-19" value="Extends" style="endArrow=block;endSize=16;endFill=0;html=1;rounded=0;exitX=0;exitY=0.5;exitDx=0;exitDy=0;entryX=1;entryY=0.5;entryDx=0;entryDy=0;" edge="1" parent="1" source="569pUtfEa6Q3hfc6EQtt-16" target="569pUtfEa6Q3hfc6EQtt-2">
          <mxGeometry width="160" relative="1" as="geometry">
            <mxPoint x="327" y="568" as="sourcePoint" />
            <mxPoint x="487" y="568" as="targetPoint" />
          </mxGeometry>
        </mxCell>
        <mxCell id="569pUtfEa6Q3hfc6EQtt-20" value="Extends" style="endArrow=block;endSize=16;endFill=0;html=1;rounded=0;exitX=0;exitY=0.5;exitDx=0;exitDy=0;entryX=1;entryY=0.5;entryDx=0;entryDy=0;" edge="1" parent="1" source="569pUtfEa6Q3hfc6EQtt-18" target="569pUtfEa6Q3hfc6EQtt-2">
          <mxGeometry width="160" relative="1" as="geometry">
            <mxPoint x="384" y="77" as="sourcePoint" />
            <mxPoint x="303" y="109" as="targetPoint" />
          </mxGeometry>
        </mxCell>
      </root>
    </mxGraphModel>
  </diagram>
</mxfile>
